HIERARCHY
ROOT hip
{
  OFFSET 51.0607 88.9476 181.601
  CHANNELS 6 Xposition Yposition Zposition Zrotation Xrotation Yrotation
  JOINT abdomen
  {
    OFFSET 0 20.6881 -0.73152
    CHANNELS 3 Zrotation Xrotation Yrotation
    JOINT chest
    {
      OFFSET 0 11.7043 -0.48768
      CHANNELS 3 Zrotation Xrotation Yrotation
      JOINT neck
      {
        OFFSET 0 22.1894 -2.19456
        CHANNELS 3 Zrotation Xrotation Yrotation
        JOINT head
        {
          OFFSET -0.24384 7.07133 1.2192
          CHANNELS 3 Zrotation Xrotation Yrotation
          JOINT leftEye
          {
            OFFSET 4.14528 8.04674 8.04672
            CHANNELS 3 Zrotation Xrotation Yrotation
            End Site
            {
              OFFSET 1 0 0
            }
          }
          JOINT rightEye
          {
            OFFSET -3.6576 8.04674 8.04672
            CHANNELS 3 Zrotation Xrotation Yrotation
            End Site
            {
              OFFSET 1 0 0
            }
          }
        }
      }
      JOINT rCollar
      {
        OFFSET -2.68224 19.2634 -4.8768
        CHANNELS 3 Zrotation Xrotation Yrotation
        JOINT rShldr
        {
          OFFSET -8.77824 -1.95073 1.46304
          CHANNELS 3 Zrotation Xrotation Yrotation
          JOINT rForeArm
          {
            OFFSET -28.1742 -1.7115 0.48768
            CHANNELS 3 Zrotation Xrotation Yrotation
            JOINT rHand
            {
              OFFSET -22.5879 0.773209 7.07136
              CHANNELS 3 Zrotation Xrotation Yrotation
              JOINT rThumb1
              {
                OFFSET -1.2192 -0.487915 3.41376
                CHANNELS 3 Zrotation Xrotation Yrotation
                JOINT rThumb2
                {
                  OFFSET -3.37035 -0.52449 3.41376
                  CHANNELS 3 Zrotation Xrotation Yrotation
                  End Site
                  {
                    OFFSET -1.78271 -1.18214 1.43049
                  }
                }
              }
              JOINT rIndex1
              {
                OFFSET -7.75947 0.938293 5.60832
                CHANNELS 3 Zrotation Xrotation Yrotation
                JOINT rIndex2
                {
                  OFFSET -2.54057 -0.884171 1.56538
                  CHANNELS 3 Zrotation Xrotation Yrotation
                  End Site
                  {
                    OFFSET -1.62519 -0.234802 1.16502
                  }
                }
              }
              JOINT rMid1
              {
                OFFSET -8.24714 1.18213 3.41376
                CHANNELS 3 Zrotation Xrotation Yrotation
                JOINT rMid2
                {
                  OFFSET -3.10165 -0.590103 1.0647
                  CHANNELS 3 Zrotation Xrotation Yrotation
                  End Site
                  {
                    OFFSET -2.48547 -0.328903 0.83742
                  }
                }
              }
              JOINT rRing1
              {
                OFFSET -8.82822 0.546677 1.51678
                CHANNELS 3 Zrotation Xrotation Yrotation
                JOINT rRing2
                {
                  OFFSET -2.60934 -0.819778 -0.0198488
                  CHANNELS 3 Zrotation Xrotation Yrotation
                  End Site
                  {
                    OFFSET -2.33842 -0.294052 0.168128
                  }
                }
              }
              JOINT rPinky1
              {
                OFFSET -8.27202 -0.0477905 -0.4584
                CHANNELS 3 Zrotation Xrotation Yrotation
                JOINT rPinky2
                {
                  OFFSET -1.82734 -0.647385 -0.700984
                  CHANNELS 3 Zrotation Xrotation Yrotation
                  End Site
                  {
                    OFFSET -1.69225 -0.51767 -0.607171
                  }
                }
              }
            }
          }
        }
      }
      JOINT lCollar
      {
        OFFSET 2.68224 19.2634 -4.8768
        CHANNELS 3 Zrotation Xrotation Yrotation
        JOINT lShldr
        {
          OFFSET 8.77824 -1.95073 1.46304
          CHANNELS 3 Zrotation Xrotation Yrotation
          JOINT lForeArm
          {
            OFFSET 28.1742 -1.7115 0.48768
            CHANNELS 3 Zrotation Xrotation Yrotation
            JOINT lHand
            {
              OFFSET 22.5879 0.773209 7.07136
              CHANNELS 3 Zrotation Xrotation Yrotation
              JOINT lThumb1
              {
                OFFSET 1.2192 -0.487915 3.41376
                CHANNELS 3 Zrotation Xrotation Yrotation
                JOINT lThumb2
                {
                  OFFSET 3.37035 -0.52449 3.41376
                  CHANNELS 3 Zrotation Xrotation Yrotation
                  End Site
                  {
                    OFFSET 1.78271 -1.18214 1.43049
                  }
                }
              }
              JOINT lIndex1
              {
                OFFSET 7.75947 0.938293 5.60832
                CHANNELS 3 Zrotation Xrotation Yrotation
                JOINT lIndex2
                {
                  OFFSET 2.54057 -0.884171 1.56538
                  CHANNELS 3 Zrotation Xrotation Yrotation
                  End Site
                  {
                    OFFSET 1.62519 -0.234802 1.16502
                  }
                }
              }
              JOINT lMid1
              {
                OFFSET 8.24714 1.18213 3.41376
                CHANNELS 3 Zrotation Xrotation Yrotation
                JOINT lMid2
                {
                  OFFSET 3.10165 -0.590103 1.0647
                  CHANNELS 3 Zrotation Xrotation Yrotation
                  End Site
                  {
                    OFFSET 2.48547 -0.328903 0.83742
                  }
                }
              }
              JOINT lRing1
              {
                OFFSET 8.82822 0.546677 1.51678
                CHANNELS 3 Zrotation Xrotation Yrotation
                JOINT lRing2
                {
                  OFFSET 2.60934 -0.819778 -0.0198488
                  CHANNELS 3 Zrotation Xrotation Yrotation
                  End Site
                  {
                    OFFSET 2.33842 -0.294052 0.168128
                  }
                }
              }
              JOINT lPinky1
              {
                OFFSET 8.27202 -0.0477905 -0.4584
                CHANNELS 3 Zrotation Xrotation Yrotation
                JOINT lPinky2
                {
                  OFFSET 1.82734 -0.647385 -0.700984
                  CHANNELS 3 Zrotation Xrotation Yrotation
                  End Site
                  {
                    OFFSET 1.69225 -0.51767 -0.607171
                  }
                }
              }
            }
          }
        }
      }
    }
  }
  JOINT rButtock
  {
    OFFSET -8.77824 4.35084 1.2192
    CHANNELS 3 Zrotation Xrotation Yrotation
    JOINT rThigh
    {
      OFFSET 0 -1.70687 -2.19456
      CHANNELS 3 Zrotation Xrotation Yrotation
      JOINT rShin
      {
        OFFSET 0 -36.8199 0.73152
        CHANNELS 3 Zrotation Xrotation Yrotation
        JOINT rFoot
        {
          OFFSET 0.73152 -45.1104 -5.12064
          CHANNELS 3 Zrotation Xrotation Yrotation
          End Site
          {
            OFFSET -1.1221 -3.69964 12.103
          }
        }
      }
    }
  }
  JOINT lButtock
  {
    OFFSET 8.77824 4.35084 1.2192
    CHANNELS 3 Zrotation Xrotation Yrotation
    JOINT lThigh
    {
      OFFSET 0 -1.70687 -2.19456
      CHANNELS 3 Zrotation Xrotation Yrotation
      JOINT lShin
      {
        OFFSET 0 -36.8199 0.73152
        CHANNELS 3 Zrotation Xrotation Yrotation
        JOINT lFoot
        {
          OFFSET -0.73152 -45.1104 -5.12064
          CHANNELS 3 Zrotation Xrotation Yrotation
          End Site
          {
            OFFSET 1.1221 -3.69964 12.103
          }
        }
      }
    }
  }
}
MOTION
Frames:	4
Frame Time:	0.00833333
49.0945 86.0562 4.9207 -5.97466 5.29092 4.14104 5.63125 -6.38538 -2.1332 4.75555 2.05781 -0.565681 -12.83 -6.33795 -4.13753 19.9791 7.51952 -4.61013 -0 0 0 -0 0 0 -4.90333e-014 2.78194e-014 -5.22431e-015 75.9818 24.6708 -4.01993 -9.29273 -3.71761 16.49 -0.006316 -1.66622 -0.234426 5.93955e-010 1.00175e-010 8.05727e-011 1.02538e-009 1.73369e-010 1.37501e-010 5.9397e-010 1.00178e-010 8.05579e-011 7.73091 5.47488 0.417314 5.93962e-010 1.00175e-010 8.05728e-011 2.90554 0.965183 0.102902 5.93956e-010 1.00175e-010 8.05719e-011 10.2786 0.731801 0.0259123 5.93952e-010 1.00178e-010 8.05815e-011 2.22167 -0.733487 -0.20892 -4.90639e-014 2.78159e-014 -5.52249e-015 -73.3572 42.7519 -12.8652 12.5148 -5.81547 -22.6124 0.00215607 -0.449949 0.0632288 9.38539e-010 1.3662e-009 6.65398e-011 1.62266e-009 2.36099e-009 1.14074e-010 9.38533e-010 1.36619e-009 6.65378e-011 -7.73091 5.47488 -0.417314 9.38536e-010 1.3662e-009 6.65392e-011 -2.90554 0.965183 -0.102902 9.38526e-010 1.3662e-009 6.6537e-011 -10.2786 0.731801 -0.0259123 9.3854e-010 1.36621e-009 6.65381e-011 -2.22167 -0.733487 0.20892 -2.03217e-016 0 -3.88251e-019 10.3538 -20.9548 -3.64319 -0.0554837 29.1495 0.160673 0.938219 -9.36751 6.56942 2.03217e-016 0 3.88251e-019 11.9631 -29.6412 12.3295 1.59739 66.1682 -1.97731 2.25731 0.947852 13.7274 
48.9752 86.0121 5.88186 -5.92791 5.47131 3.78314 5.63596 -6.49646 -1.59202 4.6053 1.98036 -0.417907 -12.8516 -6.20314 -4.18319 20.0533 7.25694 -4.67893 -0 0 0 -0 0 0 8.17247e-014 -8.63902e-014 -3.31101e-014 75.553 26.2617 -2.98377 -9.55866 -3.87184 16.9858 -0.00880931 -2.25176 -0.316844 -9.96069e-010 1.86497e-010 5.77979e-010 -1.72125e-009 3.22107e-010 9.97633e-010 -9.96058e-010 1.865e-010 5.77965e-010 7.73091 5.47488 0.417314 -9.96067e-010 1.86497e-010 5.77981e-010 2.90554 0.965183 0.102902 -9.96066e-010 1.86497e-010 5.77977e-010 10.2786 0.731801 0.0259123 -9.96071e-010 1.86499e-010 5.77986e-010 2.22167 -0.733487 -0.20892 8.17353e-014 -8.63996e-014 -3.33213e-014 -74.0872 42.4431 -11.5902 12.165 -5.56497 -21.9296 0.00150039 0.032539 -0.00461248 4.77363e-010 -3.9737e-010 -1.20599e-009 8.23829e-010 -6.88201e-010 -2.08479e-009 4.77359e-010 -3.97373e-010 -1.20598e-009 -7.73091 5.47488 -0.417314 4.77364e-010 -3.97367e-010 -1.20598e-009 -2.90554 0.965183 -0.102902 4.77357e-010 -3.97366e-010 -1.20599e-009 -10.2786 0.731801 -0.0259123 4.77366e-010 -3.9736e-010 -1.20599e-009 -2.22167 -0.733487 0.20892 -2.03217e-016 0 -3.88251e-019 10.4367 -20.2697 -3.61829 -0.0413499 28.974 0.220341 0.973107 -9.92728 6.54139 2.03217e-016 0 3.88251e-019 11.8989 -31.2624 12.6128 1.56849 66.0165 -1.99309 2.34182 0.403527 13.6935 
48.8857 85.8654 6.78167 -5.93704 5.62102 3.41064 5.72586 -6.57201 -1.07113 4.45014 1.87718 -0.277333 -12.8807 -6.11108 -4.22405 20.1027 7.06811 -4.73764 -0 0 0 -0 0 0 1.58965e-013 -1.67569e-013 -4.88016e-014 75.0578 28.0269 -2.02294 -9.91456 -4.08959 17.6414 -0.0116143 -3.07545 -0.432645 -1.98757e-009 1.98273e-010 9.50945e-010 -3.4343e-009 3.42597e-010 1.64227e-009 -1.98756e-009 1.98276e-010 9.50932e-010 7.73091 5.47488 0.417314 -1.98757e-009 1.98273e-010 9.50948e-010 2.90554 0.965183 0.102902 -1.98756e-009 1.98272e-010 9.50942e-010 10.2786 0.731801 0.0259123 -1.98757e-009 1.98274e-010 9.50951e-010 2.22167 -0.733487 -0.20892 1.59001e-013 -1.67581e-013 -4.89507e-014 -74.9508 41.9719 -10.1644 11.8155 -5.32009 -21.2533 0.000568494 0.680809 -0.095686 2.45857e-010 -1.48536e-009 -2.02335e-009 4.2215e-010 -2.56982e-009 -3.49757e-009 2.45853e-010 -1.48536e-009 -2.02335e-009 -7.73091 5.47488 -0.417314 2.4586e-010 -1.48535e-009 -2.02335e-009 -2.90554 0.965183 -0.102902 2.45854e-010 -1.48535e-009 -2.02335e-009 -10.2786 0.731801 -0.0259123 2.4586e-010 -1.48535e-009 -2.02336e-009 -2.22167 -0.733487 0.20892 -2.03217e-016 0 -3.88251e-019 10.5621 -19.5652 -3.61774 -0.0286194 28.7925 0.279543 1.02276 -10.4856 6.56074 2.03217e-016 0 3.88251e-019 11.9275 -32.7497 12.9138 1.51986 65.6398 -1.98812 2.44689 -0.240098 13.6621 
48.8388 85.8416 7.77217 -6.03219 5.72668 3.02504 5.94154 -6.60025 -0.573849 4.28395 1.7244 -0.145028 -12.9246 -6.08124 -4.26363 20.1205 7.00977 -4.79599 -0 0 0 -0 0 0 1.57967e-013 -2.13023e-013 -4.53415e-014 74.5127 30.1048 -1.19782 -10.3899 -4.3886 18.5242 -0.0191781 -4.25266 -0.598524 -2.15493e-009 9.90144e-011 1.21002e-009 -3.72457e-009 1.72638e-010 2.08898e-009 -2.15492e-009 9.90179e-011 1.21e-009 7.73091 5.47488 0.417314 -2.15493e-009 9.90146e-011 1.21002e-009 2.90554 0.965183 0.102902 -2.15492e-009 9.90145e-011 1.21001e-009 10.2786 0.731801 0.0259123 -2.15493e-009 9.90164e-011 1.21002e-009 2.22167 -0.733487 -0.20892 1.58007e-013 -2.13031e-013 -4.54596e-014 -75.9829 41.3079 -8.53435 11.4672 -5.08152 -20.5845 0.00178762 1.55492 -0.218562 3.91748e-010 -1.60675e-009 -2.26902e-009 6.72235e-010 -2.78144e-009 -3.92334e-009 3.91745e-010 -1.60675e-009 -2.26901e-009 -7.73091 5.47488 -0.417314 3.91752e-010 -1.60674e-009 -2.26902e-009 -2.90554 0.965183 -0.102902 3.91747e-010 -1.60674e-009 -2.26902e-009 -10.2786 0.731801 -0.0259123 3.91753e-010 -1.60674e-009 -2.26903e-009 -2.22167 -0.733487 0.20892 -2.03217e-016 0 -3.88251e-019 10.7555 -18.8637 -3.66766 -0.0178605 28.6539 0.340087 1.10482 -11.1187 6.65185 2.03217e-016 0 3.88251e-019 12.0898 -34.1013 13.2412 1.45223 65.0439 -1.96478 2.59001 -1.04298 13.6533 
